<svg xmlns="http://www.w3.org/2000/svg" viewBox="0 0 25.13 25.58"><defs><style>.cls-1{fill:#f03047;}</style></defs><g id="Layer_2" data-name="Layer 2"><g id="Layer_1-2" data-name="Layer 1"><path class="cls-1" d="M25.13,12.81a14.34,14.34,0,0,1-.9,5.16,12,12,0,0,1-2.56,4,11.48,11.48,0,0,1-4,2.63,13.7,13.7,0,0,1-5.13.94,13.57,13.57,0,0,1-5.12-.94,11.34,11.34,0,0,1-4-2.63A11.81,11.81,0,0,1,.91,18,14.13,14.13,0,0,1,0,12.81,14.15,14.15,0,0,1,.91,7.64a12,12,0,0,1,2.56-4,11.39,11.39,0,0,1,4-2.65A13.38,13.38,0,0,1,12.56,0a13.5,13.5,0,0,1,5.13.94,11.53,11.53,0,0,1,4,2.65,12.1,12.1,0,0,1,2.56,4.05A14.36,14.36,0,0,1,25.13,12.81Zm-3.54,0A12.41,12.41,0,0,0,21,8.67a8.68,8.68,0,0,0-1.81-3.11,7.81,7.81,0,0,0-2.85-1.94,9.68,9.68,0,0,0-3.73-.68,9.67,9.67,0,0,0-3.72.68A7.89,7.89,0,0,0,6,5.56,8.72,8.72,0,0,0,4.16,8.67a12.67,12.67,0,0,0-.64,4.14,12.65,12.65,0,0,0,.64,4.13A8.8,8.8,0,0,0,6,20,7.89,7.89,0,0,0,8.84,22a9.86,9.86,0,0,0,3.72.67A9.87,9.87,0,0,0,16.29,22,7.81,7.81,0,0,0,19.14,20,8.76,8.76,0,0,0,21,16.94,12.39,12.39,0,0,0,21.59,12.81Z"/></g></g></svg>
