<svg width="60" height="58" viewBox="0 0 60 58" xmlns="http://www.w3.org/2000/svg"><path d="M8.384 57.15h43.183v-5.19H8.384v5.19zM43.81 43.81c-1.51 0-2.736-1.225-2.736-2.737s1.225-2.736 2.736-2.736c1.51 0 2.736 1.224 2.736 2.736 0 1.512-1.225 2.736-2.736 2.736zM29.976 45.49c-2.44 0-4.42-1.978-4.42-4.42 0-2.44 1.98-4.418 4.42-4.418s4.42 1.978 4.42 4.42c0 2.44-1.98 4.418-4.42 4.418zM16.142 43.81c-1.51 0-2.736-1.225-2.736-2.737s1.225-2.736 2.736-2.736c1.51 0 2.736 1.224 2.736 2.736 0 1.512-1.226 2.736-2.736 2.736zm33.4-11.02L46.076 7.67l-7.486 20.5L29.976 0l-8.614 28.17-7.487-20.5-3.465 25.12L0 17.085 8.368 49.74h43.216l8.368-32.656-10.41 15.707z" fill="#EE3742" fill-rule="evenodd"/></svg>
